<svg width="20" height="20" viewBox="0 0 20 20" fill="none" xmlns="http://www.w3.org/2000/svg">
<path d="M15.7354 10.4104C15.3482 9.90967 14.7639 9.56576 13.9825 9.37885C14.9775 8.87131 15.4148 8.00991 15.2947 6.79449C15.2546 6.35376 15.1328 5.97178 14.9291 5.64801C14.7252 5.32417 14.45 5.06383 14.1026 4.86687C13.7554 4.66968 13.3778 4.51956 12.9707 4.41607C12.5634 4.31258 12.0959 4.23743 11.5684 4.19074V1.66666H10.026V4.12061C9.75894 4.12061 9.35164 4.12728 8.80415 4.14064V1.66666H7.26159V4.19074C7.04117 4.19744 6.71737 4.20084 6.29003 4.20084L4.16666 4.19074V5.83342H5.27837C5.78587 5.83342 6.08301 6.06051 6.16981 6.5145V9.38919C6.23667 9.38919 6.29003 9.39263 6.33013 9.3993H6.16981V13.4256C6.11645 13.7661 5.92283 13.9365 5.58892 13.9365H4.47727L4.16673 15.7695H6.16998C6.29687 15.7695 6.48039 15.7712 6.72087 15.7742C6.96122 15.7776 7.14144 15.7792 7.26166 15.7792V18.3333H8.80447V15.8093C9.08484 15.8161 9.49215 15.8194 10.0263 15.8194V18.3333H11.5687V15.7792C12.1164 15.7526 12.6021 15.7028 13.026 15.6291C13.45 15.5554 13.8558 15.4404 14.243 15.2833C14.6301 15.1265 14.9539 14.9311 15.2143 14.6974C15.4748 14.4638 15.69 14.1666 15.8606 13.8059C16.0306 13.4453 16.1392 13.0279 16.1858 12.5537C16.273 11.6258 16.1227 10.9113 15.7354 10.4104ZM8.83415 5.9433C8.88091 5.9433 9.01278 5.94161 9.2298 5.93825C9.44692 5.93481 9.62714 5.93151 9.7707 5.92814C9.91429 5.92484 10.1079 5.93319 10.3518 5.95323C10.5955 5.97326 10.8008 6.00002 10.9677 6.03335C11.1345 6.06668 11.3183 6.12179 11.5185 6.19859C11.719 6.27531 11.8791 6.36884 11.9992 6.479C12.1195 6.58916 12.2213 6.72945 12.3046 6.89974C12.3882 7.06999 12.4299 7.26529 12.4299 7.48561C12.4299 7.6726 12.3999 7.84292 12.3399 7.99658C12.28 8.15013 12.1896 8.27871 12.0696 8.3822C11.9495 8.48573 11.8257 8.57596 11.6988 8.65268C11.5721 8.72941 11.41 8.79122 11.2131 8.83792C11.0162 8.88468 10.8442 8.92141 10.6974 8.94807C10.5505 8.97481 10.3669 8.99322 10.1465 9.00319C9.92611 9.01315 9.75912 9.01996 9.64566 9.02325C9.5321 9.02655 9.3769 9.02655 9.17985 9.02325C8.98275 9.01996 8.86772 9.0182 8.83425 9.0182V5.94326H8.83415V5.9433ZM13.0461 12.7642C12.9825 12.9179 12.9008 13.0515 12.8007 13.1651C12.7005 13.2784 12.5685 13.3787 12.405 13.4653C12.2415 13.5523 12.0828 13.6223 11.9293 13.6757C11.7757 13.7293 11.5903 13.7758 11.3735 13.816C11.1562 13.8561 10.966 13.8843 10.8022 13.9011C10.6387 13.9179 10.4435 13.9312 10.2164 13.9413C9.98943 13.9511 9.81237 13.9562 9.68555 13.9562C9.55866 13.9562 9.39837 13.9543 9.20472 13.9511C9.01096 13.948 8.88754 13.9463 8.83408 13.9463V10.5607C8.88744 10.5607 9.04604 10.5574 9.30986 10.5506C9.57371 10.5439 9.78894 10.5408 9.95589 10.5408C10.1228 10.5408 10.3533 10.5506 10.6472 10.5708C10.9408 10.5907 11.1879 10.6206 11.3884 10.6607C11.5886 10.7008 11.8072 10.7625 12.0444 10.846C12.2814 10.9295 12.4735 11.0313 12.6204 11.1515C12.7673 11.2719 12.8908 11.4252 12.9909 11.6122C13.0913 11.7992 13.1413 12.0129 13.1413 12.2533C13.1413 12.4405 13.1096 12.6105 13.0461 12.7642Z" fill="#21CE99"/>
</svg>
