<svg width="20" height="20" viewBox="0 0 20 20" fill="none" xmlns="http://www.w3.org/2000/svg">
<path fill-rule="evenodd" clip-rule="evenodd" d="M10 8.75243L17.0933 5.77077C16.9717 5.6466 16.8342 5.53577 16.6675 5.45827L10.6675 2.6466C10.2467 2.45077 9.75335 2.45077 9.33251 2.6466L3.33251 5.45827C3.16584 5.53577 3.02834 5.6466 2.90668 5.77077L10 8.75243ZM9.37501 9.85593L2.50001 6.96593V13.4068C2.49584 13.9409 2.81584 14.4309 3.32501 14.6718L9.32501 17.4826C9.33311 17.4864 9.34164 17.489 9.35027 17.4915L9.35028 17.4915L9.35029 17.4915C9.35854 17.494 9.36687 17.4964 9.37501 17.5001V9.85593ZM10.625 17.4976V9.85593L17.5 6.96593V13.4143C17.5 13.9468 17.1775 14.4343 16.6675 14.6718L10.6675 17.4826C10.66 17.4864 10.6519 17.4888 10.6437 17.4913C10.6375 17.4932 10.6312 17.4951 10.625 17.4976Z" fill="#21CE99"/>
<mask id="mask0" mask-type="alpha" maskUnits="userSpaceOnUse" x="2" y="2" width="16" height="16">
<path fill-rule="evenodd" clip-rule="evenodd" d="M10 8.75243L17.0933 5.77077C16.9717 5.6466 16.8342 5.53577 16.6675 5.45827L10.6675 2.6466C10.2467 2.45077 9.75335 2.45077 9.33251 2.6466L3.33251 5.45827C3.16584 5.53577 3.02834 5.6466 2.90668 5.77077L10 8.75243ZM9.37501 9.85593L2.50001 6.96593V13.4068C2.49584 13.9409 2.81584 14.4309 3.32501 14.6718L9.32501 17.4826C9.33311 17.4864 9.34164 17.489 9.35027 17.4915L9.35028 17.4915L9.35029 17.4915C9.35854 17.494 9.36687 17.4964 9.37501 17.5001V9.85593ZM10.625 17.4976V9.85593L17.5 6.96593V13.4143C17.5 13.9468 17.1775 14.4343 16.6675 14.6718L10.6675 17.4826C10.66 17.4864 10.6519 17.4888 10.6437 17.4913C10.6375 17.4932 10.6312 17.4951 10.625 17.4976Z" fill="white"/>
</mask>
<g mask="url(#mask0)">
<rect width="20" height="20" fill="#21CE99"/>
</g>
</svg>
