<svg width="20" height="20" viewBox="0 0 20 20" fill="none" xmlns="http://www.w3.org/2000/svg">
<g clip-path="url(#clip0)">
<path d="M18.1676 13.8672C18.0944 13.8228 16.3491 12.7744 14.1675 12.7744C13.9428 12.7744 13.7199 12.7833 13.4994 12.7968C14.0113 12.5187 14.5271 12.1965 15.0043 11.8237C17.3087 10.0234 18.2771 7.09872 18.3171 6.97522C18.3541 6.86086 18.3297 6.73534 18.252 6.64338C18.174 6.55211 18.056 6.50969 17.9356 6.52427C17.8359 6.53922 15.4732 6.91073 13.3105 8.87759C12.7261 9.40927 12.197 9.99967 11.7321 10.5797C11.9383 9.77496 12.0841 8.87226 12.0841 7.91031C12.0841 4.58287 10.3643 1.92453 10.291 1.81324C10.1628 1.6178 9.83867 1.6178 9.71052 1.81324C9.63724 1.92453 7.91742 4.58287 7.91742 7.91031C7.91742 8.87229 8.06325 9.77496 8.26944 10.5797C7.8045 9.9997 7.27543 9.40927 6.69095 8.87763C4.52826 6.91073 2.16553 6.53922 2.06586 6.52431C1.94753 6.50972 1.82784 6.55214 1.74948 6.64341C1.67185 6.73537 1.64743 6.8609 1.68438 6.97525C1.72438 7.09875 2.69281 10.0234 4.99724 11.8237C5.47445 12.1966 5.99024 12.5187 6.50218 12.7969C6.28171 12.7833 6.05876 12.7744 5.83412 12.7744C3.65244 12.7744 1.9072 13.8228 1.83396 13.8673C1.73018 13.9308 1.66713 14.0437 1.66745 14.1652C1.66778 14.287 1.73187 14.3996 1.83597 14.4621C1.91022 14.5065 3.67924 15.5539 5.83412 15.5539C6.31478 15.5539 6.78848 15.4848 7.23851 15.3799C6.50192 16.248 6.5266 17.256 6.52891 17.306C6.53366 17.4129 6.58724 17.512 6.67438 17.574C6.73373 17.6165 6.80427 17.6385 6.87582 17.6385C6.90905 17.6385 6.94229 17.6337 6.97484 17.6242C7.02705 17.6087 8.26947 17.2296 9.22162 16.1286C9.39232 15.9313 9.52992 15.7357 9.65362 15.5437V17.9859C9.65362 18.178 9.80892 18.3334 10.0008 18.3334C10.1928 18.3334 10.3481 18.178 10.3481 17.9859V15.5437C10.4717 15.7357 10.6094 15.9313 10.7801 16.1286C11.7322 17.2296 12.9746 17.6086 13.0269 17.6242C13.0594 17.6337 13.0926 17.6385 13.1259 17.6385C13.1974 17.6385 13.268 17.6165 13.3273 17.574C13.4145 17.512 13.468 17.4129 13.4728 17.306C13.4751 17.256 13.5 16.2454 12.7606 15.3766C13.2131 15.4834 13.6882 15.5539 14.1675 15.5539C16.3492 15.5539 18.0945 14.5055 18.1677 14.461C18.2711 14.3979 18.3342 14.2853 18.3342 14.1642C18.3341 14.043 18.271 13.9303 18.1676 13.8672Z" fill="#21CE99"/>
</g>
<defs>
<clipPath id="clip0">
<rect x="1.66666" y="1.66666" width="16.6667" height="16.6667" fill="white"/>
</clipPath>
</defs>
</svg>
