<svg width="20" height="20" viewBox="0 0 20 20" fill="none" xmlns="http://www.w3.org/2000/svg">
<g clip-path="url(#clip0)">
<path d="M16.2438 8.49583L16.25 8.4375C16.25 5.84899 14.152 3.75 11.5625 3.75C9.82281 3.75 8.32183 4.70833 7.5135 6.11566C7.16148 5.94167 6.773 5.83333 6.35416 5.83333C4.91565 5.83333 3.74999 6.99899 3.74999 8.4375L3.75614 8.49583C2.51467 9.21865 1.66666 10.55 1.66666 12.0833C1.66666 14.375 3.54267 16.25 5.83332 16.25H7.91666H12.0833H14.1667C16.4593 16.25 18.3333 14.375 18.3333 12.0833C18.3333 10.55 17.4853 9.21865 16.2438 8.49583Z" fill="#21CE99"/>
</g>
<defs>
<clipPath id="clip0">
<rect x="1.66666" y="1.66666" width="16.6667" height="16.6667" fill="white"/>
</clipPath>
</defs>
</svg>
