<svg width="20" height="20" viewBox="0 0 20 20" fill="none" xmlns="http://www.w3.org/2000/svg">
<path fill-rule="evenodd" clip-rule="evenodd" d="M16.6667 7.5H3.33332V6.66666C3.33332 6.2075 3.70666 5.83333 4.16666 5.83333H15.8333C16.2933 5.83333 16.6667 6.2075 16.6667 6.66666V7.5ZM14.1667 12.5H12.5C12.0417 12.5 11.6667 12.125 11.6667 11.6667C11.6667 11.2083 12.0417 10.8333 12.5 10.8333H14.1667C14.625 10.8333 15 11.2083 15 11.6667C15 12.125 14.625 12.5 14.1667 12.5ZM9.16666 12.5H5.83332C5.37499 12.5 4.99999 12.125 4.99999 11.6667C4.99999 11.2083 5.37499 10.8333 5.83332 10.8333H9.16666C9.62499 10.8333 9.99999 11.2083 9.99999 11.6667C9.99999 12.125 9.62499 12.5 9.16666 12.5ZM15.8333 4.16666H4.16666C2.78832 4.16666 1.66666 5.28833 1.66666 6.66666V13.3333C1.66666 14.7117 2.78832 15.8333 4.16666 15.8333H15.8333C17.2117 15.8333 18.3333 14.7117 18.3333 13.3333V6.66666C18.3333 5.28833 17.2117 4.16666 15.8333 4.16666Z" fill="#21CE99"/>
<mask id="mask0" mask-type="alpha" maskUnits="userSpaceOnUse" x="1" y="4" width="18" height="12">
<path fill-rule="evenodd" clip-rule="evenodd" d="M16.6667 7.5H3.33332V6.66666C3.33332 6.2075 3.70666 5.83333 4.16666 5.83333H15.8333C16.2933 5.83333 16.6667 6.2075 16.6667 6.66666V7.5ZM14.1667 12.5H12.5C12.0417 12.5 11.6667 12.125 11.6667 11.6667C11.6667 11.2083 12.0417 10.8333 12.5 10.8333H14.1667C14.625 10.8333 15 11.2083 15 11.6667C15 12.125 14.625 12.5 14.1667 12.5ZM9.16666 12.5H5.83332C5.37499 12.5 4.99999 12.125 4.99999 11.6667C4.99999 11.2083 5.37499 10.8333 5.83332 10.8333H9.16666C9.62499 10.8333 9.99999 11.2083 9.99999 11.6667C9.99999 12.125 9.62499 12.5 9.16666 12.5ZM15.8333 4.16666H4.16666C2.78832 4.16666 1.66666 5.28833 1.66666 6.66666V13.3333C1.66666 14.7117 2.78832 15.8333 4.16666 15.8333H15.8333C17.2117 15.8333 18.3333 14.7117 18.3333 13.3333V6.66666C18.3333 5.28833 17.2117 4.16666 15.8333 4.16666Z" fill="white"/>
</mask>
<g mask="url(#mask0)">
<rect width="20" height="20" fill="#21CE99"/>
</g>
</svg>
