<svg width="20" height="20" viewBox="0 0 20 20" fill="none" xmlns="http://www.w3.org/2000/svg">
<g clip-path="url(#clip0)">
<path d="M14.5478 8.11463C14.5174 8.06095 14.4732 8.01629 14.4199 7.98522C14.3666 7.95415 14.306 7.93778 14.2443 7.93778H9.67477L10.4409 2.08432C10.4491 2.00598 10.4307 1.92715 10.3887 1.86053C10.3467 1.79391 10.2834 1.74337 10.2092 1.71704C10.1349 1.69072 10.054 1.69015 9.9794 1.71542C9.90479 1.7407 9.84086 1.79034 9.7979 1.85636L4.24085 11.5921C4.20835 11.645 4.19054 11.7055 4.18925 11.7676C4.18797 11.8296 4.20325 11.8908 4.23352 11.945C4.26379 11.9992 4.30796 12.0443 4.36148 12.0757C4.41499 12.1071 4.47591 12.1236 4.53796 12.1236H9.03922L8.4321 17.9859C8.42613 18.064 8.44645 18.1418 8.48981 18.207C8.53317 18.2722 8.59709 18.321 8.6714 18.3457C8.74571 18.3703 8.82613 18.3695 8.89988 18.3432C8.97362 18.3168 9.03645 18.2666 9.07837 18.2005L14.5436 8.46581C14.5753 8.41287 14.5924 8.35248 14.5931 8.29079C14.5938 8.22909 14.5782 8.16831 14.5478 8.11463Z" fill="#21CE99"/>
</g>
<defs>
<clipPath id="clip0">
<rect x="1.66666" y="1.66667" width="16.6667" height="16.6667" fill="white"/>
</clipPath>
</defs>
</svg>
