<svg width="32" height="32" viewBox="0 0 32 32" fill="none" xmlns="http://www.w3.org/2000/svg">
<circle opacity="0.06" cx="16" cy="16" r="16" fill="#F5901D"/>
<g clip-path="url(#clip0)">
<path d="M20.4381 16.3283C20.1284 15.9278 19.6609 15.6527 19.0359 15.5031C19.8319 15.0971 20.1817 14.408 20.0856 13.4356C20.0535 13.083 19.9561 12.7775 19.7931 12.5184C19.63 12.2594 19.4098 12.0511 19.1319 11.8935C18.8541 11.7358 18.5521 11.6157 18.2264 11.5329C17.9006 11.4501 17.5265 11.39 17.1045 11.3526V9.33333H15.8706V11.2965C15.657 11.2965 15.3311 11.3018 14.8931 11.3125V9.33333H13.6591V11.3526C13.4827 11.358 13.2237 11.3607 12.8818 11.3607L11.1831 11.3526V12.6668H12.0725C12.4785 12.6668 12.7162 12.8484 12.7856 13.2116V15.5114C12.8391 15.5114 12.8818 15.5142 12.9139 15.5195H12.7856V18.7406C12.7429 19.0129 12.5881 19.1493 12.3209 19.1493H11.4316L11.1832 20.6157H12.7858C12.8873 20.6157 13.0341 20.617 13.2265 20.6194C13.4188 20.6221 13.5629 20.6235 13.6591 20.6235V22.6668H14.8934V20.6475C15.1177 20.653 15.4435 20.6556 15.8709 20.6556V22.6668H17.1048V20.6235C17.5429 20.6021 17.9315 20.5623 18.2706 20.5033C18.6098 20.4444 18.9344 20.3524 19.2442 20.2267C19.5539 20.1013 19.813 19.9449 20.0213 19.758C20.2297 19.5711 20.4018 19.3333 20.5383 19.0448C20.6743 18.7563 20.7612 18.4224 20.7985 18.0431C20.8682 17.3007 20.748 16.7291 20.4381 16.3283ZM14.9171 12.7547C14.9545 12.7547 15.06 12.7533 15.2336 12.7506C15.4073 12.7479 15.5515 12.7452 15.6664 12.7425C15.7812 12.7399 15.9362 12.7466 16.1312 12.7626C16.3262 12.7786 16.4904 12.8001 16.6239 12.8267C16.7575 12.8534 16.9045 12.8975 17.0646 12.9589C17.225 13.0203 17.3531 13.0951 17.4492 13.1832C17.5454 13.2714 17.6268 13.3836 17.6935 13.5198C17.7604 13.656 17.7938 13.8123 17.7938 13.9885C17.7938 14.1381 17.7698 14.2744 17.7217 14.3973C17.6738 14.5201 17.6015 14.623 17.5055 14.7058C17.4094 14.7886 17.3104 14.8608 17.2089 14.9222C17.1075 14.9836 16.9778 15.033 16.8203 15.0704C16.6628 15.1078 16.5252 15.1372 16.4078 15.1585C16.2902 15.1799 16.1433 15.1946 15.967 15.2026C15.7907 15.2106 15.6571 15.216 15.5663 15.2186C15.4755 15.2213 15.3513 15.2213 15.1937 15.2186C15.036 15.216 14.944 15.2146 14.9172 15.2146V12.7546H14.9171V12.7547ZM18.2867 18.2114C18.2358 18.3343 18.1705 18.4412 18.0904 18.5321C18.0102 18.6228 17.9046 18.703 17.7738 18.7723C17.643 18.8419 17.516 18.8979 17.3933 18.9406C17.2704 18.9835 17.1221 19.0207 16.9486 19.0529C16.7748 19.085 16.6226 19.1075 16.4916 19.121C16.3608 19.1344 16.2046 19.145 16.0229 19.1531C15.8414 19.1609 15.6997 19.165 15.5982 19.165C15.4967 19.165 15.3685 19.1635 15.2136 19.1609C15.0586 19.1584 14.9598 19.1571 14.9171 19.1571V16.4486C14.9598 16.4486 15.0866 16.446 15.2977 16.4405C15.5088 16.4352 15.681 16.4327 15.8145 16.4327C15.9481 16.4327 16.1324 16.4405 16.3676 16.4567C16.6025 16.4726 16.8001 16.4965 16.9605 16.5286C17.1207 16.5607 17.2956 16.61 17.4853 16.6769C17.6749 16.7436 17.8286 16.8251 17.9462 16.9212C18.0637 17.0176 18.1625 17.1402 18.2426 17.2898C18.3228 17.4394 18.3629 17.6104 18.3629 17.8027C18.3629 17.9525 18.3375 18.0885 18.2867 18.2114Z" fill="#F5901D"/>
</g>
<defs>
<clipPath id="clip0">
<rect x="9.33337" y="9.33333" width="13.3333" height="13.3333" fill="white"/>
</clipPath>
</defs>
</svg>
