<svg width="32" height="32" viewBox="0 0 32 32" fill="none" xmlns="http://www.w3.org/2000/svg">
<circle opacity="0.06" cx="16" cy="16" r="16" fill="#0EB7FE"/>
<g clip-path="url(#clip0)">
<path d="M17.3195 9.69206C16.4434 10.2067 15.9247 11.1361 15.9247 12.1162C15.9247 12.6309 16.1314 13.1495 16.3901 13.6123C16.5968 14.0256 16.6981 14.747 15.9768 15.1083C15.462 15.4163 14.7886 15.211 14.4806 14.695C14.1726 14.2817 13.8112 13.8683 13.3458 13.5603C12.4698 13.0456 11.4363 13.0456 10.5602 13.5603C9.68403 14.0749 9.16663 15.0067 9.16663 15.987C9.16663 16.9673 9.68136 17.8964 10.56 18.4125C11.436 18.9271 12.4695 18.9271 13.3456 18.4125C13.811 18.1538 14.1723 17.7431 14.4284 17.2777C14.6351 16.9164 15.2032 16.4511 15.9246 16.8644C16.4393 17.1724 16.594 17.8458 16.3379 18.3605C16.0792 18.8258 15.9246 19.3419 15.9246 19.8565C15.9246 20.8379 16.4393 21.7659 17.3194 22.2807C18.1954 22.7953 19.2289 22.7953 20.105 22.2807C20.9812 21.766 21.5 20.8366 21.5 19.8565C21.5 18.8765 20.9839 17.9471 20.1052 17.4311C19.6398 17.1724 19.1237 17.0697 18.557 17.0697C18.0916 17.0697 17.4742 16.7617 17.4742 15.987C17.4742 15.367 17.9396 14.9043 18.557 14.9043C19.0717 14.9043 19.6398 14.8016 20.1052 14.5429C20.9812 14.0283 21.5 13.0989 21.5 12.1189C21.5 11.1389 20.9839 10.2095 20.1052 9.69473C19.6918 9.43606 19.177 9.33339 18.7118 9.33339C18.2491 9.33073 17.7304 9.43606 17.3197 9.69206" fill="#0EB7FE"/>
</g>
<defs>
<clipPath id="clip0">
<rect x="8.66663" y="9.33331" width="13.3333" height="13.3333" fill="white"/>
</clipPath>
</defs>
</svg>
