<svg width="20" height="20" viewBox="0 0 20 20" fill="none" xmlns="http://www.w3.org/2000/svg">
<path fill-rule="evenodd" clip-rule="evenodd" d="M15.8162 14.9999C15.8162 15.4599 15.4428 15.8333 14.9828 15.8333C14.5228 15.8333 14.1495 15.4599 14.1495 14.9999C14.1495 14.5399 14.5228 14.1666 14.9828 14.1666C15.4428 14.1666 15.8162 14.5399 15.8162 14.9999ZM5.81617 14.9999C5.81617 15.4599 5.44284 15.8333 4.98284 15.8333C4.52284 15.8333 4.14951 15.4599 4.14951 14.9999C4.14951 14.5399 4.52284 14.1666 4.98284 14.1666C5.44284 14.1666 5.81617 14.5399 5.81617 14.9999ZM16.6495 10.3999V12.4999H14.1495V8.40075L16.6495 10.3999ZM18.0037 9.34909L14.1495 6.26576V4.16659C14.1495 3.24742 13.472 2.49992 12.6387 2.49992H3.15951C2.32701 2.49992 1.64951 3.24742 1.64951 4.16659V12.4999C1.64951 13.2274 2.07701 13.8408 2.66701 14.0683C2.55034 14.3566 2.48284 14.6699 2.48284 14.9999C2.48284 16.3783 3.60451 17.4999 4.98284 17.4999C6.36117 17.4999 7.48284 16.3783 7.48284 14.9999C7.48284 14.7058 7.42284 14.4283 7.32867 14.1666H9.98284H12.637C12.5428 14.4283 12.4828 14.7058 12.4828 14.9999C12.4828 16.3783 13.6045 17.4999 14.9828 17.4999C16.3612 17.4999 17.4828 16.3783 17.4828 14.9999C17.4828 14.7058 17.4228 14.4283 17.3287 14.1666H17.4828C17.9437 14.1666 18.3162 13.7941 18.3162 13.3333V9.99992C18.3162 9.74659 18.2012 9.50742 18.0037 9.34909Z" fill="#21CE99"/>
<mask id="mask0" mask-type="alpha" maskUnits="userSpaceOnUse" x="1" y="2" width="18" height="16">
<path fill-rule="evenodd" clip-rule="evenodd" d="M15.8162 14.9999C15.8162 15.4599 15.4428 15.8333 14.9828 15.8333C14.5228 15.8333 14.1495 15.4599 14.1495 14.9999C14.1495 14.5399 14.5228 14.1666 14.9828 14.1666C15.4428 14.1666 15.8162 14.5399 15.8162 14.9999ZM5.81617 14.9999C5.81617 15.4599 5.44284 15.8333 4.98284 15.8333C4.52284 15.8333 4.14951 15.4599 4.14951 14.9999C4.14951 14.5399 4.52284 14.1666 4.98284 14.1666C5.44284 14.1666 5.81617 14.5399 5.81617 14.9999ZM16.6495 10.3999V12.4999H14.1495V8.40075L16.6495 10.3999ZM18.0037 9.34909L14.1495 6.26576V4.16659C14.1495 3.24742 13.472 2.49992 12.6387 2.49992H3.15951C2.32701 2.49992 1.64951 3.24742 1.64951 4.16659V12.4999C1.64951 13.2274 2.07701 13.8408 2.66701 14.0683C2.55034 14.3566 2.48284 14.6699 2.48284 14.9999C2.48284 16.3783 3.60451 17.4999 4.98284 17.4999C6.36117 17.4999 7.48284 16.3783 7.48284 14.9999C7.48284 14.7058 7.42284 14.4283 7.32867 14.1666H9.98284H12.637C12.5428 14.4283 12.4828 14.7058 12.4828 14.9999C12.4828 16.3783 13.6045 17.4999 14.9828 17.4999C16.3612 17.4999 17.4828 16.3783 17.4828 14.9999C17.4828 14.7058 17.4228 14.4283 17.3287 14.1666H17.4828C17.9437 14.1666 18.3162 13.7941 18.3162 13.3333V9.99992C18.3162 9.74659 18.2012 9.50742 18.0037 9.34909Z" fill="white"/>
</mask>
<g mask="url(#mask0)">
<rect width="20" height="20" fill="#21CE99"/>
</g>
</svg>
