<svg width="20" height="20" viewBox="0 0 20 20" fill="none" xmlns="http://www.w3.org/2000/svg">
<g clip-path="url(#clip0)">
<path d="M16.4815 1.66667H3.51852C2.49535 1.66667 1.66666 2.49536 1.66666 3.51854V16.4815C1.66666 17.5047 2.49535 18.3333 3.51852 18.3333H16.4815C17.5046 18.3333 18.3333 17.5047 18.3333 16.4815V3.51854C18.3333 2.49536 17.5046 1.66667 16.4815 1.66667ZM5.83332 15.5556C5.06479 15.5556 4.44443 14.9352 4.44443 14.1667C4.44443 13.3981 5.06479 12.7778 5.83332 12.7778C6.60186 12.7778 7.22221 13.3981 7.22221 14.1667C7.22221 14.9352 6.60186 15.5556 5.83332 15.5556ZM5.83332 7.22223C5.06479 7.22223 4.44443 6.60187 4.44443 5.83334C4.44443 5.06481 5.06479 4.44445 5.83332 4.44445C6.60186 4.44445 7.22221 5.06481 7.22221 5.83334C7.22221 6.60187 6.60186 7.22223 5.83332 7.22223ZM9.99999 11.3889C9.23146 11.3889 8.6111 10.7685 8.6111 10C8.6111 9.23147 9.23146 8.61112 9.99999 8.61112C10.7685 8.61112 11.3889 9.23147 11.3889 10C11.3889 10.7685 10.7685 11.3889 9.99999 11.3889ZM14.1667 15.5556C13.3981 15.5556 12.7778 14.9352 12.7778 14.1667C12.7778 13.3981 13.3981 12.7778 14.1667 12.7778C14.9352 12.7778 15.5555 13.3981 15.5555 14.1667C15.5555 14.9352 14.9352 15.5556 14.1667 15.5556ZM14.1667 7.22223C13.3981 7.22223 12.7778 6.60187 12.7778 5.83334C12.7778 5.06481 13.3981 4.44445 14.1667 4.44445C14.9352 4.44445 15.5555 5.06481 15.5555 5.83334C15.5555 6.60187 14.9352 7.22223 14.1667 7.22223Z" fill="#21CE99"/>
</g>
<defs>
<clipPath id="clip0">
<rect x="1.66666" y="1.66667" width="16.6667" height="16.6667" fill="white"/>
</clipPath>
</defs>
</svg>
