<svg width="20" height="20" viewBox="0 0 20 20" fill="none" xmlns="http://www.w3.org/2000/svg">
<path d="M9.50181 15.1581L8.4757 11.8859C8.28416 11.2751 7.71815 10.8594 7.07798 10.8594H4.09989C3.45972 10.8594 2.89373 11.2751 2.70216 11.8859L1.67606 15.1581C1.61564 15.4603 1.84673 15.7422 2.15487 15.7422H9.023C9.33117 15.7422 9.56226 15.4603 9.50181 15.1581Z" fill="#21CE99"/>
<path d="M18.3234 15.1581L17.2973 11.8859C17.1058 11.2751 16.5398 10.8594 15.8996 10.8594H12.9215C12.2813 10.8594 11.7154 11.2751 11.5238 11.8859L10.4977 15.1581C10.4373 15.4603 10.6684 15.7422 10.9765 15.7422H17.8446C18.1528 15.7422 18.3839 15.4603 18.3234 15.1581Z" fill="#21CE99"/>
<path d="M13.8963 9.29873L12.8702 6.0265C12.6787 5.41569 12.1127 5 11.4725 5H8.52698C7.88684 5 7.32083 5.41569 7.12926 6.0265L6.10315 9.29873C6.04273 9.60088 6.27382 9.88281 6.58196 9.88281H13.4175C13.7257 9.88281 13.9568 9.60088 13.8963 9.29873Z" fill="#21CE99"/>
</svg>
