<svg width="20" height="20" viewBox="0 0 20 20" fill="none" xmlns="http://www.w3.org/2000/svg">
<path fill-rule="evenodd" clip-rule="evenodd" d="M10.5957 1.91717L17.0198 8.48717C17.3248 8.8005 17.4998 9.23717 17.4998 9.68634V16.6663C17.4998 17.5855 16.794 18.333 15.9265 18.333H13.3332V10.833C13.3332 10.373 12.9607 9.99967 12.4998 9.99967H7.49983C7.039 9.99967 6.6665 10.373 6.6665 10.833V18.333H4.074C3.2065 18.333 2.49983 17.5855 2.49983 16.6663V9.68634C2.49983 9.23717 2.67483 8.8005 2.979 8.488L9.404 1.91717C9.71816 1.59634 10.2815 1.59634 10.5957 1.91717ZM11.6667 17.5H8.33333V11.6667H11.6667V17.5Z" fill="#21CE99"/>
<mask id="mask0" mask-type="alpha" maskUnits="userSpaceOnUse" x="2" y="1" width="16" height="18">
<path fill-rule="evenodd" clip-rule="evenodd" d="M10.5957 1.91717L17.0198 8.48717C17.3248 8.8005 17.4998 9.23717 17.4998 9.68634V16.6663C17.4998 17.5855 16.794 18.333 15.9265 18.333H13.3332V10.833C13.3332 10.373 12.9607 9.99967 12.4998 9.99967H7.49983C7.039 9.99967 6.6665 10.373 6.6665 10.833V18.333H4.074C3.2065 18.333 2.49983 17.5855 2.49983 16.6663V9.68634C2.49983 9.23717 2.67483 8.8005 2.979 8.488L9.404 1.91717C9.71816 1.59634 10.2815 1.59634 10.5957 1.91717ZM11.6667 17.5H8.33333V11.6667H11.6667V17.5Z" fill="white"/>
</mask>
<g mask="url(#mask0)">
<rect width="20" height="20" fill="#21CE99"/>
</g>
</svg>
