<svg width="20" height="20" viewBox="0 0 20 20" fill="none" xmlns="http://www.w3.org/2000/svg">
<path fill-rule="evenodd" clip-rule="evenodd" d="M12.1809 16.2933C13.055 15.045 13.9642 13.2092 14.1459 10.8333H16.6084C16.2892 13.3767 14.5342 15.475 12.1809 16.2933ZM3.39085 10.8333H5.88419C6.05585 13.2183 6.95335 15.0467 7.83919 16.3008C5.47502 15.4867 3.71169 13.3842 3.39085 10.8333ZM7.86502 3.69085C6.98835 4.93918 6.07085 6.78085 5.88752 9.16668H3.39085C3.71252 6.60668 5.48835 4.49751 7.86502 3.69085ZM7.56585 9.16668C7.82085 6.44001 9.21585 4.54168 10.0217 3.66418C10.855 4.55668 12.2284 6.43751 12.4659 9.16668H7.56585ZM7.56669 10.8333H12.4684C12.2134 13.5642 10.815 15.4625 10.01 16.34C9.13752 15.415 7.79919 13.56 7.56669 10.8333ZM16.6084 9.16666H14.1484C13.9775 6.7925 13.09 4.97 12.2084 3.7175C14.5484 4.5425 16.2909 6.63333 16.6084 9.16666ZM18.3334 10C18.3334 5.41334 14.6075 1.68167 10.0234 1.66834C10.02 1.66834 10.0167 1.66751 10.0125 1.66751C10.0092 1.66751 10.0042 1.66667 10 1.66667C5.40502 1.66667 1.66669 5.40584 1.66669 10C1.66669 14.595 5.40502 18.3333 10 18.3333C10.005 18.3333 10.0092 18.3325 10.0125 18.3325C10.0142 18.3325 10.015 18.3333 10.0167 18.3333C10.0192 18.3333 10.0217 18.3317 10.0234 18.3317C14.6075 18.3192 18.3334 14.5867 18.3334 10Z" fill="#21CE99"/>
<mask id="mask0" mask-type="alpha" maskUnits="userSpaceOnUse" x="1" y="1" width="18" height="18">
<path fill-rule="evenodd" clip-rule="evenodd" d="M12.1809 16.2933C13.055 15.045 13.9642 13.2092 14.1459 10.8333H16.6084C16.2892 13.3767 14.5342 15.475 12.1809 16.2933ZM3.39085 10.8333H5.88419C6.05585 13.2183 6.95335 15.0467 7.83919 16.3008C5.47502 15.4867 3.71169 13.3842 3.39085 10.8333ZM7.86502 3.69085C6.98835 4.93918 6.07085 6.78085 5.88752 9.16668H3.39085C3.71252 6.60668 5.48835 4.49751 7.86502 3.69085ZM7.56585 9.16668C7.82085 6.44001 9.21585 4.54168 10.0217 3.66418C10.855 4.55668 12.2284 6.43751 12.4659 9.16668H7.56585ZM7.56669 10.8333H12.4684C12.2134 13.5642 10.815 15.4625 10.01 16.34C9.13752 15.415 7.79919 13.56 7.56669 10.8333ZM16.6084 9.16666H14.1484C13.9775 6.7925 13.09 4.97 12.2084 3.7175C14.5484 4.5425 16.2909 6.63333 16.6084 9.16666ZM18.3334 10C18.3334 5.41334 14.6075 1.68167 10.0234 1.66834C10.02 1.66834 10.0167 1.66751 10.0125 1.66751C10.0092 1.66751 10.0042 1.66667 10 1.66667C5.40502 1.66667 1.66669 5.40584 1.66669 10C1.66669 14.595 5.40502 18.3333 10 18.3333C10.005 18.3333 10.0092 18.3325 10.0125 18.3325C10.0142 18.3325 10.015 18.3333 10.0167 18.3333C10.0192 18.3333 10.0217 18.3317 10.0234 18.3317C14.6075 18.3192 18.3334 14.5867 18.3334 10Z" fill="white"/>
</mask>
<g mask="url(#mask0)">
<rect width="20" height="20" fill="#21CE99"/>
</g>
</svg>
