<svg width="20" height="20" viewBox="0 0 20 20" fill="none" xmlns="http://www.w3.org/2000/svg">
<path fill-rule="evenodd" clip-rule="evenodd" d="M9.99964 13.375C10.1321 13.375 10.2646 13.4067 10.3855 13.4692L13.5263 15.1108L12.9288 11.6467C12.8813 11.375 12.9721 11.0983 13.1705 10.9058L15.7005 8.45916L12.198 7.94916C11.9271 7.90999 11.693 7.74082 11.5713 7.49582L9.99964 4.33416L8.42797 7.49582C8.30631 7.74082 8.07214 7.90999 7.80131 7.94916L4.29881 8.45916L6.82881 10.9058C7.02714 11.0983 7.11797 11.375 7.07047 11.6467L6.47297 15.1108L9.6138 13.4692C9.73464 13.4067 9.86714 13.375 9.99964 13.375ZM14.6346 17.4625C14.5021 17.4625 14.3696 17.4317 14.2488 17.3683L9.99964 15.1483L5.75048 17.3683C5.46881 17.515 5.12881 17.4892 4.87464 17.3025C4.61798 17.1158 4.49048 16.8 4.54381 16.4875L5.35381 11.7975L1.92048 8.47666C1.69131 8.25582 1.60964 7.92416 1.70714 7.62166C1.80381 7.31916 2.06548 7.09916 2.37964 7.05332L7.13048 6.36332L9.25298 2.09166C9.53464 1.52499 10.4646 1.52499 10.7463 2.09166L12.8688 6.36332L17.6196 7.05332C17.9338 7.09916 18.1955 7.31916 18.2921 7.62166C18.3896 7.92416 18.308 8.25582 18.0788 8.47666L14.6455 11.7975L15.4555 16.4875C15.5088 16.8 15.3813 17.1158 15.1246 17.3025C14.9805 17.4092 14.808 17.4625 14.6346 17.4625Z" fill="#8395AE"/>
<mask id="mask0" mask-type="alpha" maskUnits="userSpaceOnUse" x="1" y="1" width="18" height="17">
<path fill-rule="evenodd" clip-rule="evenodd" d="M9.99964 13.375C10.1321 13.375 10.2646 13.4067 10.3855 13.4692L13.5263 15.1108L12.9288 11.6467C12.8813 11.375 12.9721 11.0983 13.1705 10.9058L15.7005 8.45916L12.198 7.94916C11.9271 7.90999 11.693 7.74082 11.5713 7.49582L9.99964 4.33416L8.42797 7.49582C8.30631 7.74082 8.07214 7.90999 7.80131 7.94916L4.29881 8.45916L6.82881 10.9058C7.02714 11.0983 7.11797 11.375 7.07047 11.6467L6.47297 15.1108L9.6138 13.4692C9.73464 13.4067 9.86714 13.375 9.99964 13.375ZM14.6346 17.4625C14.5021 17.4625 14.3696 17.4317 14.2488 17.3683L9.99964 15.1483L5.75048 17.3683C5.46881 17.515 5.12881 17.4892 4.87464 17.3025C4.61798 17.1158 4.49048 16.8 4.54381 16.4875L5.35381 11.7975L1.92048 8.47666C1.69131 8.25582 1.60964 7.92416 1.70714 7.62166C1.80381 7.31916 2.06548 7.09916 2.37964 7.05332L7.13048 6.36332L9.25298 2.09166C9.53464 1.52499 10.4646 1.52499 10.7463 2.09166L12.8688 6.36332L17.6196 7.05332C17.9338 7.09916 18.1955 7.31916 18.2921 7.62166C18.3896 7.92416 18.308 8.25582 18.0788 8.47666L14.6455 11.7975L15.4555 16.4875C15.5088 16.8 15.3813 17.1158 15.1246 17.3025C14.9805 17.4092 14.808 17.4625 14.6346 17.4625Z" fill="white"/>
</mask>
<g mask="url(#mask0)">
<rect width="20" height="20" fill="#8395AE"/>
</g>
</svg>
