<svg width="20" height="20" viewBox="0 0 20 20" fill="none" xmlns="http://www.w3.org/2000/svg">
<path fill-rule="evenodd" clip-rule="evenodd" d="M14.6346 17.5006C14.5029 17.5006 14.3704 17.4698 14.2487 17.4064L9.99956 15.1864L5.75123 17.4064C5.46956 17.5522 5.12956 17.5273 4.87456 17.3406C4.6179 17.1539 4.4904 16.8381 4.54456 16.5256L5.35373 11.8356L1.9204 8.51475C1.69206 8.29392 1.60956 7.96225 1.70706 7.65892C1.80456 7.35725 2.0654 7.13642 2.3804 7.09142L7.1304 6.40142L9.25373 2.12975C9.5354 1.56308 10.4646 1.56308 10.7462 2.12975L12.8696 6.40142L17.6196 7.09142C17.9346 7.13642 18.1954 7.35725 18.2929 7.65892C18.3904 7.96225 18.3079 8.29392 18.0796 8.51475L14.6462 11.8356L15.4554 16.5256C15.5096 16.8381 15.3812 17.1539 15.1254 17.3406C14.9804 17.4473 14.8079 17.5006 14.6346 17.5006Z" fill="#FFBA5A"/>
<mask id="mask0" mask-type="alpha" maskUnits="userSpaceOnUse" x="1" y="1" width="18" height="17">
<path fill-rule="evenodd" clip-rule="evenodd" d="M14.6346 17.5006C14.5029 17.5006 14.3704 17.4698 14.2487 17.4064L9.99956 15.1864L5.75123 17.4064C5.46956 17.5522 5.12956 17.5273 4.87456 17.3406C4.6179 17.1539 4.4904 16.8381 4.54456 16.5256L5.35373 11.8356L1.9204 8.51475C1.69206 8.29392 1.60956 7.96225 1.70706 7.65892C1.80456 7.35725 2.0654 7.13642 2.3804 7.09142L7.1304 6.40142L9.25373 2.12975C9.5354 1.56308 10.4646 1.56308 10.7462 2.12975L12.8696 6.40142L17.6196 7.09142C17.9346 7.13642 18.1954 7.35725 18.2929 7.65892C18.3904 7.96225 18.3079 8.29392 18.0796 8.51475L14.6462 11.8356L15.4554 16.5256C15.5096 16.8381 15.3812 17.1539 15.1254 17.3406C14.9804 17.4473 14.8079 17.5006 14.6346 17.5006Z" fill="white"/>
</mask>
<g mask="url(#mask0)">
<rect width="20" height="20" fill="#FFBA5A"/>
</g>
</svg>
