<svg width="20" height="20" viewBox="0 0 20 20" fill="none" xmlns="http://www.w3.org/2000/svg">
<g id="Icon/Outline/sun">
<path id="Mask" fill-rule="evenodd" clip-rule="evenodd" d="M10 4.99984C10.46 4.99984 10.8334 4.62734 10.8334 4.1665V2.49984C10.8334 2.039 10.46 1.6665 10 1.6665C9.54002 1.6665 9.16669 2.039 9.16669 2.49984V4.1665C9.16669 4.62734 9.54002 4.99984 10 4.99984ZM10 11.6665C9.08085 11.6665 8.33335 10.919 8.33335 9.99985C8.33335 9.08068 9.08085 8.33318 10 8.33318C10.9192 8.33318 11.6667 9.08068 11.6667 9.99985C11.6667 10.919 10.9192 11.6665 10 11.6665ZM10 6.6665C8.16169 6.6665 6.66669 8.1615 6.66669 9.99984C6.66669 11.8382 8.16169 13.3332 10 13.3332C11.8384 13.3332 13.3334 11.8382 13.3334 9.99984C13.3334 8.1615 11.8384 6.6665 10 6.6665ZM15.8334 9.1665H17.5C17.96 9.1665 18.3334 9.539 18.3334 9.99984C18.3334 10.4607 17.96 10.8332 17.5 10.8332H15.8334C15.3734 10.8332 15 10.4607 15 9.99984C15 9.539 15.3734 9.1665 15.8334 9.1665ZM5.00002 9.99984C5.00002 9.539 4.62669 9.1665 4.16669 9.1665H2.50002C2.04002 9.1665 1.66669 9.539 1.66669 9.99984C1.66669 10.4607 2.04002 10.8332 2.50002 10.8332H4.16669C4.62669 10.8332 5.00002 10.4607 5.00002 9.99984ZM4.0056 4.2109C4.3256 3.8809 4.8531 3.8709 5.18393 4.19006L6.3831 5.3484C6.71393 5.66756 6.7231 6.1959 6.4031 6.52673C6.23976 6.6959 6.02226 6.7809 5.80393 6.7809C5.5956 6.7809 5.38726 6.70423 5.22476 6.54756L4.0256 5.38923C3.69476 5.07006 3.6856 4.54173 4.0056 4.2109ZM14.196 6.78126C14.4044 6.78126 14.6127 6.70376 14.7752 6.54793L15.9744 5.3896C16.3052 5.0696 16.3144 4.54127 15.9944 4.21127C15.6752 3.88127 15.1485 3.87127 14.816 4.19043L13.6169 5.34793C13.286 5.66793 13.2769 6.19626 13.5969 6.52627C13.7602 6.69543 13.9777 6.78126 14.196 6.78126ZM9.16669 15.8332C9.16669 15.3723 9.54002 14.9998 10 14.9998C10.46 14.9998 10.8334 15.3723 10.8334 15.8332V17.4998C10.8334 17.9607 10.46 18.3332 10 18.3332C9.54002 18.3332 9.16669 17.9607 9.16669 17.4998V15.8332ZM14.775 13.452C14.4442 13.1328 13.9167 13.1428 13.5967 13.4728C13.2767 13.8037 13.2858 14.332 13.6167 14.6512L14.8158 15.8095C14.9783 15.9662 15.1867 16.0428 15.395 16.0428C15.6133 16.0428 15.8308 15.9578 15.9942 15.7887C16.3142 15.4578 16.305 14.9295 15.9742 14.6103L14.775 13.452ZM4.02584 14.6103L5.22501 13.452C5.55667 13.1328 6.08417 13.1428 6.40334 13.4728C6.72334 13.8037 6.71417 14.332 6.38334 14.6512L5.18417 15.8095C5.02167 15.9662 4.81334 16.0428 4.60501 16.0428C4.38667 16.0428 4.16917 15.9578 4.00584 15.7887C3.68584 15.4578 3.69501 14.9295 4.02584 14.6103Z" fill="white"/>
<mask id="mask0" mask-type="alpha" maskUnits="userSpaceOnUse" x="1" y="1" width="18" height="18">
<path id="Mask_2" fill-rule="evenodd" clip-rule="evenodd" d="M10 4.99984C10.46 4.99984 10.8334 4.62734 10.8334 4.1665V2.49984C10.8334 2.039 10.46 1.6665 10 1.6665C9.54002 1.6665 9.16669 2.039 9.16669 2.49984V4.1665C9.16669 4.62734 9.54002 4.99984 10 4.99984ZM10 11.6665C9.08085 11.6665 8.33335 10.919 8.33335 9.99985C8.33335 9.08068 9.08085 8.33318 10 8.33318C10.9192 8.33318 11.6667 9.08068 11.6667 9.99985C11.6667 10.919 10.9192 11.6665 10 11.6665ZM10 6.6665C8.16169 6.6665 6.66669 8.1615 6.66669 9.99984C6.66669 11.8382 8.16169 13.3332 10 13.3332C11.8384 13.3332 13.3334 11.8382 13.3334 9.99984C13.3334 8.1615 11.8384 6.6665 10 6.6665ZM15.8334 9.1665H17.5C17.96 9.1665 18.3334 9.539 18.3334 9.99984C18.3334 10.4607 17.96 10.8332 17.5 10.8332H15.8334C15.3734 10.8332 15 10.4607 15 9.99984C15 9.539 15.3734 9.1665 15.8334 9.1665ZM5.00002 9.99984C5.00002 9.539 4.62669 9.1665 4.16669 9.1665H2.50002C2.04002 9.1665 1.66669 9.539 1.66669 9.99984C1.66669 10.4607 2.04002 10.8332 2.50002 10.8332H4.16669C4.62669 10.8332 5.00002 10.4607 5.00002 9.99984ZM4.0056 4.2109C4.3256 3.8809 4.8531 3.8709 5.18393 4.19006L6.3831 5.3484C6.71393 5.66756 6.7231 6.1959 6.4031 6.52673C6.23976 6.6959 6.02226 6.7809 5.80393 6.7809C5.5956 6.7809 5.38726 6.70423 5.22476 6.54756L4.0256 5.38923C3.69476 5.07006 3.6856 4.54173 4.0056 4.2109ZM14.196 6.78126C14.4044 6.78126 14.6127 6.70376 14.7752 6.54793L15.9744 5.3896C16.3052 5.0696 16.3144 4.54127 15.9944 4.21127C15.6752 3.88127 15.1485 3.87127 14.816 4.19043L13.6169 5.34793C13.286 5.66793 13.2769 6.19626 13.5969 6.52627C13.7602 6.69543 13.9777 6.78126 14.196 6.78126ZM9.16669 15.8332C9.16669 15.3723 9.54002 14.9998 10 14.9998C10.46 14.9998 10.8334 15.3723 10.8334 15.8332V17.4998C10.8334 17.9607 10.46 18.3332 10 18.3332C9.54002 18.3332 9.16669 17.9607 9.16669 17.4998V15.8332ZM14.775 13.452C14.4442 13.1328 13.9167 13.1428 13.5967 13.4728C13.2767 13.8037 13.2858 14.332 13.6167 14.6512L14.8158 15.8095C14.9783 15.9662 15.1867 16.0428 15.395 16.0428C15.6133 16.0428 15.8308 15.9578 15.9942 15.7887C16.3142 15.4578 16.305 14.9295 15.9742 14.6103L14.775 13.452ZM4.02584 14.6103L5.22501 13.452C5.55667 13.1328 6.08417 13.1428 6.40334 13.4728C6.72334 13.8037 6.71417 14.332 6.38334 14.6512L5.18417 15.8095C5.02167 15.9662 4.81334 16.0428 4.60501 16.0428C4.38667 16.0428 4.16917 15.9578 4.00584 15.7887C3.68584 15.4578 3.69501 14.9295 4.02584 14.6103Z" fill="white"/>
</mask>
<g mask="url(#mask0)">
<g id="&#240;&#159;&#142;&#168; Color">
<rect id="Base" width="20" height="20" fill="white"/>
</g>
</g>
</g>
</svg>
