<svg width="16" height="15" viewBox="0 0 16 15" fill="none" xmlns="http://www.w3.org/2000/svg">
<path d="M2.35105 7.04967C2.35105 10.2724 3.96241 12.9374 6.11196 12.8735C9.12025 12.7869 10.0017 10.2518 10.0017 7.02801C10.0017 3.80422 8.26043 1.16195 6.11196 1.18252C3.4686 1.20418 2.35105 3.82588 2.35105 7.04967ZM0.00874244 7.04967C0.460311 0.151606 5.87588 0 5.87588 0C9.80789 0.021658 10.9254 4.21247 10.9254 4.21247C10.9904 4.44963 13.2678 0.302129 13.2678 0.302129H14.5564C11.9141 5.99601 12.0213 8.31774 12.0213 8.31774C11.8058 11.3899 13.5255 12.4436 13.5255 12.4436C15.1368 13.4745 15.2451 10.4662 15.2451 10.4662C15.6101 10.3363 15.8245 10.2085 15.8245 10.2085C16.6843 14.3776 14.1059 14.0983 14.1059 14.0983C12.1069 14.3127 11.2471 11.0466 11.2471 11.0466C8.41096 14.7859 5.14492 13.9694 5.14492 13.9694C-0.44283 13.2817 0.00874244 7.04967 0.00874244 7.04967Z" fill="#21CE99"/>
</svg>
