<svg width="14" height="12" viewBox="0 0 14 12" fill="none" xmlns="http://www.w3.org/2000/svg">
<path fill-rule="evenodd" clip-rule="evenodd" d="M1.16659 6.83334H11.0541L8.02658 10.4667C7.73159 10.82 7.77992 11.3458 8.13325 11.64C8.48742 11.935 9.01242 11.8867 9.30742 11.5333L13.4741 6.53334C13.5066 6.49417 13.5224 6.44834 13.5466 6.40501C13.5666 6.37001 13.5908 6.34001 13.6058 6.30167C13.6433 6.20584 13.6658 6.10501 13.6658 6.00334C13.6658 6.00251 13.6666 6.00084 13.6666 6.00001C13.6666 5.99917 13.6658 5.99751 13.6658 5.99667C13.6658 5.89501 13.6433 5.79417 13.6058 5.69834C13.5908 5.66001 13.5666 5.63001 13.5466 5.59501C13.5224 5.55167 13.5066 5.50584 13.4741 5.46667L9.30742 0.466672C9.14158 0.269172 8.90492 0.166672 8.66658 0.166672C8.47825 0.166672 8.28908 0.230005 8.13325 0.360005C7.77992 0.654172 7.73159 1.18001 8.02658 1.53334L11.0541 5.16667H1.16659C0.706585 5.16667 0.333252 5.54001 0.333252 6.00001C0.333252 6.46001 0.706585 6.83334 1.16659 6.83334Z" fill="#fff"/>
</svg>
