<svg width="20" height="20" viewBox="0 0 20 20" fill="none" xmlns="http://www.w3.org/2000/svg">
<path fill-rule="evenodd" clip-rule="evenodd" d="M17.4935 5.80243C17.4919 5.74243 17.4744 5.68576 17.4585 5.62826C17.446 5.57993 17.4402 5.53076 17.4194 5.4866C17.4002 5.44326 17.3677 5.40826 17.3394 5.36826C17.3044 5.31743 17.2727 5.2666 17.2277 5.22493C17.2202 5.21743 17.2169 5.20743 17.2085 5.20076C17.1785 5.17493 17.1419 5.16576 17.1094 5.14493C17.0594 5.11243 17.0102 5.0791 16.9535 5.05743C16.8977 5.03743 16.8427 5.03243 16.7852 5.0241C16.7452 5.01826 16.7094 4.99993 16.6669 4.99993H12.5002C12.0394 4.99993 11.6669 5.37326 11.6669 5.83326C11.6669 6.29326 12.0394 6.6666 12.5002 6.6666H14.8552L11.4919 10.5899L7.92853 8.45243C7.57603 8.2391 7.1227 8.31743 6.85937 8.63326L2.6927 13.6333C2.39853 13.9866 2.44603 14.5124 2.79937 14.8066C2.95603 14.9366 3.14437 14.9999 3.3327 14.9999C3.57187 14.9999 3.80853 14.8983 3.97353 14.6999L7.68353 10.2483L11.2377 12.3816C11.5869 12.5908 12.0352 12.5174 12.2994 12.2091L15.8335 8.08576V9.99993C15.8335 10.4599 16.206 10.8333 16.6669 10.8333C17.1277 10.8333 17.5002 10.4599 17.5002 9.99993V5.83326C17.5002 5.82243 17.4944 5.81326 17.4935 5.80243Z" fill="#21CE99"/>
</svg>
