<svg width="20" height="20" viewBox="0 0 20 20" fill="none" xmlns="http://www.w3.org/2000/svg">
<path d="M12.615 18.3333H7.385C7.11534 18.3333 6.89672 18.1147 6.89672 17.8451V13.1033H2.15495C1.88529 13.1033 1.66667 12.8847 1.66667 12.615V7.385C1.66667 7.11534 1.88529 6.89672 2.15495 6.89672H6.89672V2.15495C6.89672 1.88529 7.11534 1.66667 7.385 1.66667H12.615C12.8847 1.66667 13.1033 1.88529 13.1033 2.15495V6.89672H17.8451C18.1147 6.89672 18.3333 7.11534 18.3333 7.385V12.615C18.3333 12.8847 18.1147 13.1033 17.8451 13.1033H13.1033V17.8451C13.1033 18.1147 12.8847 18.3333 12.615 18.3333Z" fill="#21CE99"/>
</svg>
