<svg width="16" height="16" viewBox="0 0 16 16" fill="none" xmlns="http://www.w3.org/2000/svg">
<g id="Icon/Outline/moon">
<path id="Mask" fill-rule="evenodd" clip-rule="evenodd" d="M4.96061 3.27871C4.62728 3.51471 4.32128 3.78804 4.04394 4.09737C2.14461 6.21137 2.20661 9.59404 4.18194 11.6374C5.22594 12.718 6.62861 13.3207 8.13128 13.3334C8.14794 13.334 8.16528 13.334 8.18261 13.334C9.66594 13.334 11.0586 12.7587 12.1093 11.71C12.3279 11.492 12.5266 11.258 12.7046 11.0087C10.6073 11.27 8.45728 10.5674 6.92994 9.04337C5.40328 7.51937 4.69661 5.37404 4.96061 3.27871ZM8.1826 14.6674C8.16127 14.6674 8.1406 14.6674 8.11927 14.6667C6.2566 14.6507 4.51727 13.904 3.22327 12.5647C0.771935 10.028 0.695269 5.83004 3.05127 3.20671C3.78527 2.38871 4.68127 1.77337 5.71394 1.37804C5.95727 1.28337 6.23394 1.34204 6.41994 1.52604C6.60594 1.70937 6.66794 1.98471 6.57794 2.23004C5.8326 4.26671 6.3406 6.57071 7.87194 8.09937C9.40394 9.62804 11.7139 10.1354 13.7573 9.39137C14.0026 9.3007 14.2786 9.36471 14.4613 9.55004C14.6439 9.73737 14.7019 10.0134 14.6079 10.2567C14.2586 11.1654 13.7346 11.972 13.0506 12.654C11.7486 13.954 10.0219 14.6674 8.1826 14.6674Z" fill="#231F20"/>
<mask id="mask0" mask-type="alpha" maskUnits="userSpaceOnUse" x="1" y="1" width="14" height="14">
<path id="Mask_2" fill-rule="evenodd" clip-rule="evenodd" d="M4.96061 3.27871C4.62728 3.51471 4.32128 3.78804 4.04394 4.09737C2.14461 6.21137 2.20661 9.59404 4.18194 11.6374C5.22594 12.718 6.62861 13.3207 8.13128 13.3334C8.14794 13.334 8.16528 13.334 8.18261 13.334C9.66594 13.334 11.0586 12.7587 12.1093 11.71C12.3279 11.492 12.5266 11.258 12.7046 11.0087C10.6073 11.27 8.45728 10.5674 6.92994 9.04337C5.40328 7.51937 4.69661 5.37404 4.96061 3.27871ZM8.1826 14.6674C8.16127 14.6674 8.1406 14.6674 8.11927 14.6667C6.2566 14.6507 4.51727 13.904 3.22327 12.5647C0.771935 10.028 0.695269 5.83004 3.05127 3.20671C3.78527 2.38871 4.68127 1.77337 5.71394 1.37804C5.95727 1.28337 6.23394 1.34204 6.41994 1.52604C6.60594 1.70937 6.66794 1.98471 6.57794 2.23004C5.8326 4.26671 6.3406 6.57071 7.87194 8.09937C9.40394 9.62804 11.7139 10.1354 13.7573 9.39137C14.0026 9.3007 14.2786 9.36471 14.4613 9.55004C14.6439 9.73737 14.7019 10.0134 14.6079 10.2567C14.2586 11.1654 13.7346 11.972 13.0506 12.654C11.7486 13.954 10.0219 14.6674 8.1826 14.6674Z" fill="white"/>
</mask>
<g mask="url(#mask0)">
<g id="&#240;&#159;&#142;&#168; Color">
<rect id="Base" width="16" height="16" fill="#0D1C2E"/>
</g>
</g>
</g>
</svg>
