<svg width="20" height="20" viewBox="0 0 20 20" fill="none" xmlns="http://www.w3.org/2000/svg">
<path fill-rule="evenodd" clip-rule="evenodd" d="M17.5692 5.79015C17.2633 5.29515 16.7333 5.00015 16.1517 5.00015H5.485L4.97083 3.11432C4.87167 2.75182 4.5425 2.50015 4.16667 2.50015H2.5C2.03917 2.50015 1.66667 2.87349 1.66667 3.33349C1.66667 3.79349 2.03917 4.16682 2.5 4.16682H3.53L5.8625 12.7193C5.96167 13.0818 6.29083 13.3335 6.66667 13.3335H14.1667C14.4825 13.3335 14.7708 13.1552 14.9125 12.8727L17.6425 7.41182C17.9025 6.89099 17.875 6.28515 17.5692 5.79015ZM6.25 15C5.56 15 5 15.5592 5 16.25C5 16.9408 5.56 17.5 6.25 17.5C6.94 17.5 7.5 16.9408 7.5 16.25C7.5 15.5592 6.94 15 6.25 15ZM13.3333 16.25C13.3333 15.5592 13.8933 15 14.5833 15C15.2733 15 15.8333 15.5592 15.8333 16.25C15.8333 16.9408 15.2733 17.5 14.5833 17.5C13.8933 17.5 13.3333 16.9408 13.3333 16.25Z" fill="white"/>
<mask id="mask0" mask-type="alpha" maskUnits="userSpaceOnUse" x="1" y="2" width="17" height="16">
<path fill-rule="evenodd" clip-rule="evenodd" d="M17.5692 5.79015C17.2633 5.29515 16.7333 5.00015 16.1517 5.00015H5.485L4.97083 3.11432C4.87167 2.75182 4.5425 2.50015 4.16667 2.50015H2.5C2.03917 2.50015 1.66667 2.87349 1.66667 3.33349C1.66667 3.79349 2.03917 4.16682 2.5 4.16682H3.53L5.8625 12.7193C5.96167 13.0818 6.29083 13.3335 6.66667 13.3335H14.1667C14.4825 13.3335 14.7708 13.1552 14.9125 12.8727L17.6425 7.41182C17.9025 6.89099 17.875 6.28515 17.5692 5.79015ZM6.25 15C5.56 15 5 15.5592 5 16.25C5 16.9408 5.56 17.5 6.25 17.5C6.94 17.5 7.5 16.9408 7.5 16.25C7.5 15.5592 6.94 15 6.25 15ZM13.3333 16.25C13.3333 15.5592 13.8933 15 14.5833 15C15.2733 15 15.8333 15.5592 15.8333 16.25C15.8333 16.9408 15.2733 17.5 14.5833 17.5C13.8933 17.5 13.3333 16.9408 13.3333 16.25Z" fill="white"/>
</mask>
<g mask="url(#mask0)">
<rect width="20" height="20" fill="#21CE99"/>
</g>
</svg>
