<svg width="56" height="56" viewBox="0 0 54 50" fill="none" xmlns="http://www.w3.org/2000/svg">
<g clip-path="url(#clip0)">
<path d="M23.6165 16.8575C23.5832 16.9121 23.5484 16.953 23.512 16.9803C23.4756 17.0045 23.4302 17.0166 23.3756 17.0166C23.3181 17.0166 23.2529 16.9924 23.1802 16.9439C23.1105 16.8954 23.0226 16.8424 22.9166 16.7848C22.8135 16.7242 22.6908 16.6697 22.5484 16.6212C22.406 16.5697 22.2363 16.5439 22.0393 16.5439C21.8575 16.5439 21.6969 16.5666 21.5575 16.6121C21.4212 16.6575 21.306 16.7212 21.2121 16.803C21.1181 16.8848 21.0469 16.9818 20.9984 17.0939C20.953 17.203 20.9303 17.3227 20.9303 17.453C20.9303 17.6196 20.9742 17.759 21.0621 17.8711C21.15 17.9802 21.2651 18.0742 21.4075 18.1529C21.553 18.2317 21.7181 18.3014 21.903 18.362C22.0878 18.4196 22.2757 18.4817 22.4666 18.5484C22.6605 18.6151 22.8499 18.6908 23.0347 18.7757C23.2196 18.8605 23.3832 18.9681 23.5256 19.0984C23.6711 19.2287 23.7877 19.3878 23.8756 19.5756C23.9635 19.7635 24.0074 19.9923 24.0074 20.262C24.0074 20.5529 23.9574 20.8256 23.8574 21.0801C23.7574 21.3347 23.612 21.5574 23.4211 21.7483C23.2332 21.9361 22.9999 22.0846 22.7211 22.1937C22.4454 22.3028 22.1302 22.3573 21.7757 22.3573C21.5666 22.3573 21.3621 22.3361 21.1621 22.2937C20.9651 22.2543 20.7757 22.1983 20.5939 22.1255C20.4151 22.0498 20.247 21.9589 20.0894 21.8528C19.9318 21.7468 19.7909 21.6286 19.6667 21.4983L19.9758 20.9892C20.003 20.9468 20.0379 20.9135 20.0803 20.8892C20.1227 20.865 20.1697 20.8529 20.2212 20.8529C20.2909 20.8529 20.3682 20.8862 20.453 20.9528C20.5379 21.0165 20.6394 21.0877 20.7575 21.1665C20.8788 21.2422 21.0242 21.3134 21.1939 21.3801C21.3636 21.4437 21.5666 21.4756 21.803 21.4756C22.1878 21.4756 22.4848 21.3816 22.6938 21.1937C22.906 21.0059 23.012 20.7468 23.012 20.4165C23.012 20.2317 22.9681 20.0817 22.8802 19.9665C22.7923 19.8483 22.6757 19.7499 22.5302 19.6711C22.3878 19.5923 22.2242 19.5256 22.0393 19.4711C21.8545 19.4165 21.6666 19.359 21.4757 19.2984C21.2848 19.2347 21.0969 19.162 20.9121 19.0802C20.7272 18.9953 20.5621 18.8863 20.4166 18.7529C20.2742 18.6166 20.1591 18.4499 20.0712 18.2529C19.9833 18.053 19.9394 17.8045 19.9394 17.5075C19.9394 17.2712 19.9848 17.0424 20.0757 16.8212C20.1697 16.6 20.3045 16.4045 20.4803 16.2348C20.6591 16.0621 20.8788 15.9242 21.1393 15.8212C21.3999 15.7182 21.6969 15.6667 22.0302 15.6667C22.406 15.6667 22.7499 15.7258 23.062 15.8439C23.3771 15.9621 23.6483 16.1303 23.8756 16.3485L23.6165 16.8575Z" fill="#21CE99"/>
<path d="M26.5564 19.1484C26.2776 19.312 26.0716 19.5029 25.9383 19.7211C25.8049 19.9392 25.7383 20.1756 25.7383 20.4301C25.7383 20.6089 25.7701 20.7695 25.8337 20.9119C25.9004 21.0513 25.9867 21.1695 26.0928 21.2665C26.2019 21.3634 26.3261 21.4377 26.4655 21.4892C26.6079 21.5407 26.7549 21.5665 26.9064 21.5665C27.2064 21.5665 27.4791 21.5165 27.7246 21.4165C27.97 21.3134 28.1882 21.1756 28.3791 21.0028L26.5564 19.1484ZM30.8563 22.2846H29.9063C29.8548 22.2846 29.8078 22.2816 29.7654 22.2755C29.726 22.2695 29.6881 22.2604 29.6518 22.2483C29.6184 22.2331 29.5851 22.2134 29.5518 22.1892C29.5215 22.1649 29.4881 22.1331 29.4518 22.0937L28.9063 21.5392C28.6185 21.7937 28.2912 21.9937 27.9245 22.1392C27.5609 22.2846 27.1655 22.3573 26.7382 22.3573C26.4897 22.3573 26.2458 22.3149 26.0064 22.2301C25.7701 22.1452 25.558 22.024 25.3701 21.8665C25.1822 21.7059 25.0307 21.5119 24.9156 21.2847C24.8004 21.0544 24.7428 20.7953 24.7428 20.5074C24.7428 20.2983 24.7762 20.1014 24.8428 19.9165C24.9125 19.7317 25.008 19.5605 25.1292 19.4029C25.2534 19.2423 25.3989 19.0984 25.5655 18.9711C25.7322 18.8438 25.9155 18.7347 26.1155 18.6438C25.9428 18.4135 25.817 18.1893 25.7383 17.9711C25.6595 17.753 25.6201 17.5318 25.6201 17.3075C25.6201 17.0833 25.661 16.8712 25.7428 16.6712C25.8246 16.4712 25.9428 16.297 26.0973 16.1485C26.2549 16 26.4443 15.8833 26.6655 15.7985C26.8897 15.7106 27.1428 15.6667 27.4246 15.6667C27.6791 15.6667 27.9079 15.7061 28.1109 15.7848C28.317 15.8636 28.4927 15.9697 28.6382 16.103C28.7866 16.2363 28.9018 16.3894 28.9836 16.5621C29.0684 16.7348 29.1184 16.9136 29.1336 17.0984L28.5154 17.2257C28.4609 17.2378 28.4094 17.2303 28.3609 17.203C28.3154 17.1757 28.2806 17.1303 28.2564 17.0666C28.2321 16.9878 28.1973 16.9106 28.1518 16.8348C28.1064 16.756 28.0503 16.6863 27.9836 16.6257C27.917 16.5651 27.8367 16.5166 27.7427 16.4803C27.6518 16.4409 27.5458 16.4212 27.4246 16.4212C27.2852 16.4212 27.1594 16.4439 27.0473 16.4894C26.9382 16.5348 26.8443 16.5985 26.7655 16.6803C26.6897 16.7591 26.6307 16.8515 26.5882 16.9575C26.5488 17.0636 26.5291 17.1772 26.5291 17.2984C26.5291 17.3954 26.5397 17.4893 26.561 17.5802C26.5822 17.6711 26.617 17.7621 26.6655 17.853C26.714 17.9439 26.7746 18.0378 26.8473 18.1348C26.9231 18.2287 27.014 18.3302 27.12 18.4393L28.9245 20.2983C29.0336 20.0983 29.12 19.8908 29.1836 19.6756C29.2472 19.4574 29.2897 19.2378 29.3109 19.0166C29.3169 18.9529 29.3381 18.9029 29.3745 18.8666C29.4109 18.8272 29.4593 18.8075 29.5199 18.8075H30.1245C30.1214 19.1862 30.0639 19.5514 29.9517 19.9029C29.8427 20.2514 29.6881 20.5756 29.4881 20.8756L30.8563 22.2846Z" fill="#21CE99"/>
<path d="M33.7177 19.0756C33.9541 19.0756 34.1617 19.0453 34.3404 18.9847C34.5223 18.9241 34.6722 18.8393 34.7904 18.7302C34.9116 18.6181 35.0025 18.4832 35.0631 18.3257C35.1237 18.1681 35.1541 17.9923 35.1541 17.7984C35.1541 17.6075 35.1237 17.4363 35.0631 17.2848C35.0056 17.1333 34.9177 17.0045 34.7995 16.8984C34.6813 16.7924 34.5313 16.7121 34.3495 16.6575C34.1708 16.6 33.9602 16.5712 33.7177 16.5712H32.745V19.0756H33.7177ZM33.7177 15.7394C34.145 15.7394 34.5147 15.7894 34.8268 15.8894C35.1419 15.9894 35.401 16.1303 35.604 16.3121C35.8101 16.4909 35.9631 16.7075 36.0631 16.9621C36.1631 17.2136 36.2131 17.4924 36.2131 17.7984C36.2131 18.1105 36.1601 18.3969 36.054 18.6575C35.948 18.915 35.7904 19.1378 35.5813 19.3256C35.3722 19.5105 35.1116 19.6559 34.7995 19.762C34.4904 19.865 34.1298 19.9165 33.7177 19.9165H32.745V22.2846H31.6814V15.7394H33.7177Z" fill="#21CE99"/>
<path d="M21.5469 26.7166C21.6818 26.6903 21.8117 26.6722 21.9367 26.6623C22.0617 26.6525 22.1835 26.6475 22.3019 26.6475C22.6802 26.6475 23.0142 26.7051 23.3037 26.8202C23.5932 26.9354 23.8367 27.0933 24.0341 27.294C24.2314 27.4914 24.3795 27.725 24.4782 27.9947C24.5802 28.2612 24.6312 28.5475 24.6312 28.8534C24.6312 29.2383 24.5621 29.5904 24.4239 29.9095C24.289 30.2253 24.0998 30.4984 23.8564 30.7287C23.6129 30.959 23.3218 31.1383 22.9829 31.2666C22.6473 31.3916 22.2789 31.4541 21.8775 31.4541C21.6439 31.4541 21.4202 31.4294 21.2064 31.3801C20.9958 31.3307 20.7968 31.2649 20.6092 31.1827C20.425 31.0971 20.2539 31.0001 20.096 30.8915C19.9381 30.7797 19.795 30.6612 19.6667 30.5362L20.1404 29.9045C20.1898 29.8387 20.2473 29.7894 20.3131 29.7565C20.3789 29.7203 20.4497 29.7022 20.5253 29.7022C20.624 29.7022 20.7162 29.7302 20.8017 29.7861C20.8905 29.8387 20.9859 29.898 21.0879 29.9638C21.1932 30.0263 21.3149 30.0838 21.4531 30.1365C21.5913 30.1891 21.7624 30.2154 21.9663 30.2154C22.1703 30.2154 22.3447 30.1825 22.4894 30.1167C22.6342 30.0477 22.751 29.9555 22.8398 29.8404C22.9319 29.722 22.9977 29.5854 23.0372 29.4308C23.08 29.2729 23.1014 29.1051 23.1014 28.9274C23.1014 28.5787 23.0027 28.3139 22.8053 28.1329C22.6079 27.9487 22.3282 27.8566 21.9663 27.8566C21.6439 27.8566 21.3281 27.9174 21.0188 28.0392L20.0713 27.7825L20.6833 24.185H24.3647V24.8167C24.3647 24.922 24.3482 25.0174 24.3153 25.1029C24.2824 25.1884 24.2298 25.2641 24.1574 25.3299C24.0883 25.3924 23.9962 25.4418 23.8811 25.4779C23.7659 25.5108 23.6277 25.5273 23.4665 25.5273H21.7492L21.5469 26.7166Z" fill="#21CE99"/>
<path d="M30.6081 27.7776C30.6081 28.406 30.5407 28.9505 30.4058 29.4111C30.2709 29.8716 30.0834 30.2533 29.8432 30.556C29.6063 30.8586 29.3234 31.084 28.9944 31.232C28.6687 31.3801 28.315 31.4541 27.9334 31.4541C27.5518 31.4541 27.1981 31.3801 26.8724 31.232C26.55 31.084 26.2703 30.8586 26.0335 30.556C25.7966 30.2533 25.6107 29.8716 25.4758 29.4111C25.3442 28.9505 25.2784 28.406 25.2784 27.7776C25.2784 27.1492 25.3442 26.6047 25.4758 26.1442C25.6107 25.6836 25.7966 25.3019 26.0335 24.9993C26.2703 24.6966 26.55 24.4729 26.8724 24.3281C27.1981 24.1801 27.5518 24.106 27.9334 24.106C28.315 24.106 28.6687 24.1801 28.9944 24.3281C29.3234 24.4729 29.6063 24.6966 29.8432 24.9993C30.0834 25.3019 30.2709 25.6836 30.4058 26.1442C30.5407 26.6047 30.6081 27.1492 30.6081 27.7776ZM29.0289 27.7776C29.0289 27.2808 28.9977 26.8745 28.9352 26.5587C28.8727 26.2396 28.7888 25.9895 28.6835 25.8086C28.5815 25.6276 28.4647 25.5043 28.3331 25.4385C28.2015 25.3694 28.0683 25.3348 27.9334 25.3348C27.7985 25.3348 27.6653 25.3694 27.5337 25.4385C27.4054 25.5043 27.2902 25.6276 27.1882 25.8086C27.0895 25.9895 27.0089 26.2396 26.9464 26.5587C26.8872 26.8745 26.8576 27.2808 26.8576 27.7776C26.8576 28.2777 26.8872 28.6856 26.9464 29.0015C27.0089 29.3173 27.0895 29.5673 27.1882 29.7516C27.2902 29.9325 27.4054 30.0575 27.5337 30.1266C27.6653 30.1924 27.7985 30.2253 27.9334 30.2253C28.0683 30.2253 28.2015 30.1924 28.3331 30.1266C28.4647 30.0575 28.5815 29.9325 28.6835 29.7516C28.7888 29.5673 28.8727 29.3173 28.9352 29.0015C28.9977 28.6856 29.0289 28.2777 29.0289 27.7776Z" fill="#21CE99"/>
<path d="M36.3333 27.7776C36.3333 28.406 36.2659 28.9505 36.131 29.4111C35.9961 29.8716 35.8086 30.2533 35.5684 30.556C35.3316 30.8586 35.0486 31.084 34.7196 31.232C34.3939 31.3801 34.0403 31.4541 33.6586 31.4541C33.277 31.4541 32.9233 31.3801 32.5976 31.232C32.2752 31.084 31.9956 30.8586 31.7587 30.556C31.5218 30.2533 31.3359 29.8716 31.2011 29.4111C31.0695 28.9505 31.0037 28.406 31.0037 27.7776C31.0037 27.1492 31.0695 26.6047 31.2011 26.1442C31.3359 25.6836 31.5218 25.3019 31.7587 24.9993C31.9956 24.6966 32.2752 24.4729 32.5976 24.3281C32.9233 24.1801 33.277 24.106 33.6586 24.106C34.0403 24.106 34.3939 24.1801 34.7196 24.3281C35.0486 24.4729 35.3316 24.6966 35.5684 24.9993C35.8086 25.3019 35.9961 25.6836 36.131 26.1442C36.2659 26.6047 36.3333 27.1492 36.3333 27.7776ZM34.7542 27.7776C34.7542 27.2808 34.7229 26.8745 34.6604 26.5587C34.5979 26.2396 34.514 25.9895 34.4087 25.8086C34.3067 25.6276 34.19 25.5043 34.0584 25.4385C33.9268 25.3694 33.7935 25.3348 33.6586 25.3348C33.5237 25.3348 33.3905 25.3694 33.2589 25.4385C33.1306 25.5043 33.0154 25.6276 32.9135 25.8086C32.8148 25.9895 32.7342 26.2396 32.6717 26.5587C32.6124 26.8745 32.5828 27.2808 32.5828 27.7776C32.5828 28.2777 32.6124 28.6856 32.6717 29.0015C32.7342 29.3173 32.8148 29.5673 32.9135 29.7516C33.0154 29.9325 33.1306 30.0575 33.2589 30.1266C33.3905 30.1924 33.5237 30.2253 33.6586 30.2253C33.7935 30.2253 33.9268 30.1924 34.0584 30.1266C34.19 30.0575 34.3067 29.9325 34.4087 29.7516C34.514 29.5673 34.5979 29.3173 34.6604 29.0015C34.7229 28.6856 34.7542 28.2777 34.7542 27.7776Z" fill="#21CE99"/>
</g>
<defs>
<filter id="filter0_d" x="0" y="0" width="56" height="56" filterUnits="userSpaceOnUse" color-interpolation-filters="sRGB">
<feFlood flood-opacity="0" result="BackgroundImageFix"/>
<feColorMatrix in="SourceAlpha" type="matrix" values="0 0 0 0 0 0 0 0 0 0 0 0 0 0 0 0 0 0 127 0"/>
<feOffset dy="4"/>
<feGaussianBlur stdDeviation="6"/>
<feColorMatrix type="matrix" values="0 0 0 0 0.129412 0 0 0 0 0.807843 0 0 0 0 0.6 0 0 0 0.24 0"/>
<feBlend mode="normal" in2="BackgroundImageFix" result="effect1_dropShadow"/>
<feBlend mode="normal" in="SourceGraphic" in2="effect1_dropShadow" result="shape"/>
</filter>
<clipPath id="clip0">
<rect width="16.6667" height="16.6667" fill="white" transform="translate(19.6667 15.6667)"/>
</clipPath>
</defs>
</svg>
