<svg width="48" height="48" viewBox="0 0 48 48" fill="none" xmlns="http://www.w3.org/2000/svg">
<path fill-rule="evenodd" clip-rule="evenodd" d="M23.9991 32.1C24.3171 32.1 24.6351 32.176 24.9251 32.326L32.4631 36.266L31.0291 27.952C30.9151 27.3 31.1331 26.636 31.6091 26.174L37.6811 20.302L29.2751 19.078C28.6251 18.984 28.0631 18.578 27.7711 17.99L23.9991 10.402L20.2271 17.99C19.9351 18.578 19.3731 18.984 18.7231 19.078L10.3171 20.302L16.3891 26.174C16.8651 26.636 17.0831 27.3 16.9691 27.952L15.5351 36.266L23.0731 32.326C23.3631 32.176 23.6811 32.1 23.9991 32.1ZM35.1231 41.91C34.8051 41.91 34.4871 41.836 34.1971 41.684L23.9991 36.356L13.8011 41.684C13.1251 42.036 12.3091 41.974 11.6991 41.526C11.0831 41.078 10.7771 40.32 10.9051 39.57L12.8491 28.314L4.60912 20.344C4.05912 19.814 3.86312 19.018 4.09712 18.292C4.32912 17.566 4.95712 17.038 5.71112 16.928L17.1131 15.272L22.2071 5.02C22.8831 3.66 25.1151 3.66 25.7911 5.02L30.8851 15.272L42.2871 16.928C43.0411 17.038 43.6691 17.566 43.9011 18.292C44.1351 19.018 43.9391 19.814 43.3891 20.344L35.1491 28.314L37.0931 39.57C37.2211 40.32 36.9151 41.078 36.2991 41.526C35.9531 41.782 35.5391 41.91 35.1231 41.91Z" fill="#FFBA5A"/>
<mask id="mask0" mask-type="alpha" maskUnits="userSpaceOnUse" x="4" y="4" width="40" height="38">
<path fill-rule="evenodd" clip-rule="evenodd" d="M23.9991 32.1C24.3171 32.1 24.6351 32.176 24.9251 32.326L32.4631 36.266L31.0291 27.952C30.9151 27.3 31.1331 26.636 31.6091 26.174L37.6811 20.302L29.2751 19.078C28.6251 18.984 28.0631 18.578 27.7711 17.99L23.9991 10.402L20.2271 17.99C19.9351 18.578 19.3731 18.984 18.7231 19.078L10.3171 20.302L16.3891 26.174C16.8651 26.636 17.0831 27.3 16.9691 27.952L15.5351 36.266L23.0731 32.326C23.3631 32.176 23.6811 32.1 23.9991 32.1ZM35.1231 41.91C34.8051 41.91 34.4871 41.836 34.1971 41.684L23.9991 36.356L13.8011 41.684C13.1251 42.036 12.3091 41.974 11.6991 41.526C11.0831 41.078 10.7771 40.32 10.9051 39.57L12.8491 28.314L4.60912 20.344C4.05912 19.814 3.86312 19.018 4.09712 18.292C4.32912 17.566 4.95712 17.038 5.71112 16.928L17.1131 15.272L22.2071 5.02C22.8831 3.66 25.1151 3.66 25.7911 5.02L30.8851 15.272L42.2871 16.928C43.0411 17.038 43.6691 17.566 43.9011 18.292C44.1351 19.018 43.9391 19.814 43.3891 20.344L35.1491 28.314L37.0931 39.57C37.2211 40.32 36.9151 41.078 36.2991 41.526C35.9531 41.782 35.5391 41.91 35.1231 41.91Z" fill="white"/>
</mask>
<g mask="url(#mask0)">
<rect width="48" height="48" fill="#FFBA5A"/>
</g>
</svg>
